<svg width="70" height="80" viewBox="0 0 70 80" fill="none" xmlns="http://www.w3.org/2000/svg">
<g clip-path="url(#clip0_25_292)">
<path d="M53.8006 2.96021H48.1912L54.0258 8.26939V10.7944H42.0053V7.83736H47.8399L42.0053 2.52819V0H53.8044L53.8006 2.96021ZM39.6187 2.96021H34.0019L39.844 8.26939V10.7944H27.8198V7.83736H33.6543L27.8198 2.52819V0H39.6187V2.96021ZM25.5745 3.08183H19.5222V7.71576H25.5745V10.7976H15.215V0H25.5745V3.08183Z" fill="#EBEBEB"/>
<path d="M6.96341 73.5772L0.808029 15.7263H68.4331L62.2701 73.5676L34.5786 80.0002L6.96341 73.5772Z" fill="#1572B6"/>
<path d="M34.6206 75.0843L56.9969 69.8839L62.2588 20.4561H34.6206V75.0843Z" fill="#33A9DC"/>
<path d="M34.6206 41.4141H45.8241L46.5953 34.1496H34.6206V27.058H55.8514L55.6489 28.9621L53.5678 48.5153H34.6206V41.4141Z" fill="white"/>
<path d="M34.6662 59.8419H34.628L25.2003 57.7072L24.5969 52.0492H16.1048L17.2922 63.1893L34.6357 67.2345H34.6853V59.8419H34.6662Z" fill="#EBEBEB"/>
<path d="M45.1059 48.2053L44.0863 57.7005L34.6433 59.8351V67.2276L51.9982 63.1953L52.1242 61.9952L53.5982 48.2021H45.1059V48.2053Z" fill="white"/>
<path d="M34.6511 27.058V34.1528H14.207L14.0314 32.559L13.6457 28.9621L13.4433 27.058H34.6511ZM34.6206 41.4141V48.5089H25.2998L25.1356 46.9153L24.7498 43.3182L24.5474 41.4141H34.6168H34.6206Z" fill="#EBEBEB"/>
</g>
<defs>
<clipPath id="clip0_25_292">
<rect width="70" height="80" fill="white"/>
</clipPath>
</defs>
</svg>
