<svg width="50" height="70" viewBox="0 0 50 70" fill="none" xmlns="http://www.w3.org/2000/svg">
<g clip-path="url(#clip0_19_118)">
<path d="M12.8724 69.9998C19.6041 69.9998 25.0676 64.7732 25.0676 58.333V46.6664H12.8724C6.14074 46.6664 0.677338 51.893 0.677338 58.333C0.677338 64.7732 6.14074 69.9998 12.8724 69.9998Z" fill="#0ACF83"/>
<path d="M0.677338 34.9997C0.677338 28.5597 6.14074 23.3331 12.8724 23.3331H25.0676V46.6662H12.8724C6.14074 46.6662 0.677338 41.4397 0.677338 34.9997Z" fill="#A259FF"/>
<path d="M0.677338 11.6666C0.677338 5.22666 6.14074 0 12.8724 0H25.0676V23.3333H12.8724C6.14074 23.3333 0.677338 18.1067 0.677338 11.6666Z" fill="#F24E1E"/>
<path d="M25.0674 0H37.2626C43.9944 0 49.4578 5.22666 49.4578 11.6666C49.4578 18.1067 43.9944 23.3333 37.2626 23.3333H25.0674V0Z" fill="#FF7262"/>
<path d="M49.4578 34.9997C49.4578 41.4397 43.9944 46.6662 37.2626 46.6662C30.5309 46.6662 25.0674 41.4397 25.0674 34.9997C25.0674 28.5597 30.5309 23.3331 37.2626 23.3331C43.9944 23.3331 49.4578 28.5597 49.4578 34.9997Z" fill="#1ABCFE"/>
</g>
<defs>
<clipPath id="clip0_19_118">
<rect width="50" height="70" fill="white"/>
</clipPath>
</defs>
</svg>
