<svg width="70" height="80" viewBox="0 0 70 80" fill="none" xmlns="http://www.w3.org/2000/svg">
<g clip-path="url(#clip0_25_286)">
<path d="M69.1989 15.7217L62.8948 73.5654L34.5572 80L6.29764 73.5744L0 15.7217H69.1989Z" fill="#E44D26"/>
<path d="M34.5994 75.0816L57.4975 69.8823L62.8846 20.4521H34.5994V75.0816Z" fill="#F16529"/>
<path d="M22.3447 34.6432H34.5997V27.5479H12.8771L13.0843 29.4513L15.2137 49.0044H34.5997V41.9089H23.1363L22.3447 34.6432ZM24.297 52.5521H15.6007L16.8143 63.6929L34.5598 67.7276L34.5997 67.7187V60.3365L34.5618 60.3447L24.9138 58.2109L24.297 52.5521Z" fill="#EBEBEB"/>
<path d="M6.43854 0H10.841V3.56245H14.8682V0H19.2708V10.788H14.8685V7.17557H10.8412V10.788H6.43881V0H6.43854ZM25.06 3.57757H21.1849V0H33.3407V3.57757H29.4632V10.788H25.0608V3.57757H25.0605H25.06ZM35.2699 0H39.8603L42.6839 3.79063L45.505 0H50.0972V10.788H45.7128V5.44089L42.6839 9.27661H42.608L39.5773 5.44089V10.788H35.2699V0ZM52.2882 0H56.6918V7.22223H62.8829V10.788H52.2879V0H52.2882Z" fill="#EBEBEB"/>
<path d="M34.5702 49.0044H45.2377L44.232 58.2065L34.5701 60.3425V67.7243L52.3297 63.6929L52.4598 62.4941L54.4958 43.8142L54.7071 41.9089H34.5702V49.0044ZM34.5702 34.6259V34.6432H55.4955L55.669 33.0485L56.064 29.4513L56.2709 27.5479H34.5702V34.6261V34.6259Z" fill="white"/>
</g>
<defs>
<clipPath id="clip0_25_286">
<rect width="70" height="80" fill="white"/>
</clipPath>
</defs>
</svg>
