<svg width="70" height="70" viewBox="0 0 70 70" fill="none" xmlns="http://www.w3.org/2000/svg">
<path d="M0.0173683 0H68.8698V70H0.0173683V0Z" fill="#F7DF1E"/>
<path d="M18.1213 58.4968L23.3901 55.2548C24.4068 57.0872 25.3315 58.6376 27.5495 58.6376C29.6756 58.6376 31.0163 57.7921 31.0163 54.5033V32.1365H37.4866V54.5961C37.4866 61.4095 33.5582 64.5107 27.8268 64.5107C22.6507 64.5107 19.6462 61.7854 18.121 58.4962L18.1213 58.4968ZM41.0011 57.7919L46.2693 54.6907C47.6563 56.9934 49.4589 58.6848 52.6476 58.6848C55.3288 58.6848 57.0383 57.322 57.0383 55.4424C57.0383 53.1871 55.282 52.3882 52.3241 51.0729L50.7069 50.3674C46.0385 48.3476 42.9421 45.8101 42.9421 40.4534C42.9421 35.5195 46.6394 31.7603 52.4168 31.7603C56.5303 31.7603 59.4882 33.2172 61.614 37.0232L56.5759 40.3126C55.4665 38.2922 54.2654 37.4935 52.4166 37.4935C50.5215 37.4935 49.3198 38.7152 49.3198 40.3126C49.3198 42.286 50.5215 43.0853 53.2944 44.3069L54.9119 45.0116C60.4121 47.4083 63.5086 49.8515 63.5086 55.3486C63.5086 61.2697 58.9331 64.5115 52.7861 64.5115C46.7779 64.5115 42.8955 61.5983 41.0007 57.7921" fill="black"/>
</svg>
