<svg width="100" height="70" viewBox="0 0 100 70" fill="none" xmlns="http://www.w3.org/2000/svg">
<g clip-path="url(#clip0_19_126)">
<path d="M49.966 70C77.4049 70 99.6483 54.3299 99.6483 35C99.6483 15.6701 77.4049 0 49.966 0C22.5271 0 0.283493 15.6701 0.283493 35C0.283493 54.3299 22.5271 70 49.966 70Z" fill="#8993BE"/>
<path fill-rule="evenodd" clip-rule="evenodd" d="M14.2354 55.7236L19.6803 18.4208H32.2705C37.7151 18.8814 40.4375 22.5653 40.4375 29.0132C40.4375 40.0657 33.9722 46.5132 28.1869 46.0525H22.0623L20.7011 55.7236H14.2354ZM23.4232 39.145L25.1248 25.3289H29.5484C31.9305 25.3289 33.6317 26.7103 33.6317 29.4733C33.2917 37.3027 30.5693 38.6843 27.5068 39.145H23.4235H23.4232ZM39.1725 46.0525L44.6171 8.75024H51.0828L49.7215 18.4208H55.8465C61.2913 18.8814 63.3329 22.5653 62.6526 27.171L60.2705 46.0525H53.4648L55.8468 29.0132C56.1868 26.7103 56.1868 25.3289 53.8052 25.3289H48.7007L45.6383 46.0525H39.1725ZM59.8347 55.7236L65.2791 18.4208H77.8697C83.3147 18.8814 86.0371 22.5653 86.0371 29.0132C86.0371 40.0657 79.5714 46.5132 73.7865 46.0525H67.6612L66.2999 55.7236H59.8347ZM69.022 39.145L70.7236 25.3289H75.1477C77.5297 25.3289 79.2309 26.7103 79.2309 29.4733C78.8909 37.3027 76.1685 38.6843 73.106 39.145H69.0224H69.022Z" fill="#232531"/>
</g>
<defs>
<clipPath id="clip0_19_126">
<rect width="100" height="70" fill="white"/>
</clipPath>
</defs>
</svg>
